<svg version="1.0" preserveAspectRatio="xMidYMid meet" viewBox="14.625 17.999999520000003 122.25 117.74999686000001" zoomAndPan="magnify" xmlns:xlink="http://www.w3.org/1999/xlink" xmlns="http://www.w3.org/2000/svg" style="max-height: 500px" width="122.25" height="117.74999686000001"><defs><g/><clipPath id="f5426dabf4"><path clip-rule="nonzero" d="M 0.0664062 0 L 144.433594 0 L 144.433594 166 L 0.0664062 166 Z M 0.0664062 0"/></clipPath></defs><g fill-opacity="1" fill="#fff5f0"><g transform="translate(67.645085, 114.418735)"><g><path d="M 2.453125 0.171875 C 1.347656 0.171875 0.796875 -0.992188 0.796875 -3.328125 C 0.796875 -5.492188 1.347656 -7.523438 2.453125 -9.421875 C 3.566406 -11.328125 5 -13.097656 6.75 -14.734375 C 8.507812 -16.378906 10.367188 -17.90625 12.328125 -19.3125 C 14.285156 -20.71875 16.140625 -22.019531 17.890625 -23.21875 C 19.648438 -24.414062 21.085938 -25.507812 22.203125 -26.5 C 23.316406 -27.5 23.875 -28.378906 23.875 -29.140625 C 23.875 -30.773438 22.5 -31.59375 19.75 -31.59375 C 16.882812 -31.59375 14.351562 -30.773438 12.15625 -29.140625 C 9.957031 -27.503906 7.894531 -25.078125 5.96875 -21.859375 L 2.015625 -24.046875 C 3.535156 -26.566406 4.820312 -29.226562 5.875 -32.03125 C 6.925781 -34.84375 7.894531 -38.207031 8.78125 -42.125 C 9.300781 -44.226562 10.265625 -45.28125 11.671875 -45.28125 C 12.609375 -45.28125 13.265625 -45.117188 13.640625 -44.796875 C 14.023438 -44.484375 14.289062 -44.117188 14.4375 -43.703125 C 14.582031 -43.296875 14.769531 -42.929688 15 -42.609375 C 15.238281 -42.285156 15.707031 -42.125 16.40625 -42.125 C 17.113281 -42.125 17.773438 -42.269531 18.390625 -42.5625 C 19.003906 -42.851562 19.765625 -43.144531 20.671875 -43.4375 C 21.578125 -43.738281 22.757812 -43.890625 24.21875 -43.890625 C 26.332031 -43.890625 28.132812 -43.710938 29.625 -43.359375 C 31.113281 -43.003906 32.632812 -42.796875 34.1875 -42.734375 C 35.738281 -42.679688 37.625 -43.066406 39.84375 -43.890625 C 40.3125 -44.054688 40.734375 -43.960938 41.109375 -43.609375 C 41.492188 -43.265625 41.628906 -42.859375 41.515625 -42.390625 C 41.046875 -39.347656 40.078125 -36.695312 38.609375 -34.4375 C 37.148438 -32.1875 35.46875 -30.269531 33.5625 -28.6875 C 31.664062 -27.113281 29.820312 -25.753906 28.03125 -24.609375 C 26.25 -23.472656 24.773438 -22.492188 23.609375 -21.671875 C 22.441406 -20.859375 21.859375 -20.070312 21.859375 -19.3125 C 21.859375 -17.84375 23.929688 -17.109375 28.078125 -17.109375 C 30.828125 -17.109375 33.414062 -17.765625 35.84375 -19.078125 C 38.28125 -20.398438 40.171875 -22.054688 41.515625 -24.046875 C 42.453125 -25.390625 43.3125 -26.03125 44.09375 -25.96875 C 44.882812 -25.914062 45.441406 -25.476562 45.765625 -24.65625 C 46.085938 -23.84375 45.988281 -22.910156 45.46875 -21.859375 C 44.9375 -20.804688 44.203125 -19.382812 43.265625 -17.59375 C 42.328125 -15.8125 41.1875 -13.910156 39.84375 -11.890625 C 38.5 -9.867188 36.929688 -7.953125 35.140625 -6.140625 C 33.359375 -4.328125 31.34375 -2.847656 29.09375 -1.703125 C 26.84375 -0.566406 24.367188 0 21.671875 0 C 19.679688 0 18.1875 -0.21875 17.1875 -0.65625 C 16.195312 -1.09375 15.425781 -1.601562 14.875 -2.1875 C 14.320312 -2.78125 13.75 -3.296875 13.15625 -3.734375 C 12.570312 -4.171875 11.753906 -4.390625 10.703125 -4.390625 C 9.242188 -4.390625 8.160156 -4.15625 7.453125 -3.6875 C 6.753906 -3.21875 6.210938 -2.691406 5.828125 -2.109375 C 5.453125 -1.523438 5.046875 -1 4.609375 -0.53125 C 4.171875 -0.0625 3.453125 0.171875 2.453125 0.171875 Z M 2.453125 0.171875"/></g></g></g><g fill-opacity="1" fill="#fff5f0"><g transform="translate(37.061065, 106.757227)"><g><path d="M 68.71875 -69.078125 C 70.0625 -69.078125 70.96875 -68.769531 71.4375 -68.15625 C 71.90625 -67.539062 72.140625 -66.644531 72.140625 -65.46875 C 72.140625 -63.25 71.613281 -61.144531 70.5625 -59.15625 C 69.507812 -57.164062 67.941406 -55.554688 65.859375 -54.328125 C 63.785156 -53.097656 61.257812 -52.484375 58.28125 -52.484375 C 56.226562 -52.484375 54.441406 -52.71875 52.921875 -53.1875 C 51.398438 -53.65625 49.921875 -54.179688 48.484375 -54.765625 C 47.054688 -55.347656 45.476562 -55.875 43.75 -56.34375 C 42.019531 -56.8125 39.898438 -57.046875 37.390625 -57.046875 C 34.816406 -57.046875 32.390625 -56.765625 30.109375 -56.203125 C 27.828125 -55.648438 26 -54.789062 24.625 -53.625 C 23.25 -52.457031 22.5625 -50.9375 22.5625 -49.0625 C 22.5625 -47.894531 22.878906 -46.914062 23.515625 -46.125 C 24.160156 -45.332031 24.953125 -44.9375 25.890625 -44.9375 C 26.296875 -44 26.320312 -42.867188 25.96875 -41.546875 C 25.625 -40.234375 24.9375 -38.976562 23.90625 -37.78125 C 22.882812 -36.582031 21.566406 -35.570312 19.953125 -34.75 C 18.347656 -33.9375 16.492188 -33.53125 14.390625 -33.53125 C 11.992188 -33.53125 9.972656 -34.097656 8.328125 -35.234375 C 6.691406 -36.378906 5.460938 -37.882812 4.640625 -39.75 C 3.828125 -41.625 3.421875 -43.613281 3.421875 -45.71875 C 3.421875 -49.875 4.796875 -53.707031 7.546875 -57.21875 C 10.296875 -60.726562 14.347656 -63.535156 19.703125 -65.640625 C 25.054688 -67.753906 31.566406 -68.8125 39.234375 -68.8125 C 41.984375 -68.8125 44.304688 -68.75 46.203125 -68.625 C 48.109375 -68.507812 49.910156 -68.394531 51.609375 -68.28125 C 53.304688 -68.164062 55.148438 -68.109375 57.140625 -68.109375 C 60.296875 -68.109375 62.734375 -68.269531 64.453125 -68.59375 C 66.179688 -68.914062 67.601562 -69.078125 68.71875 -69.078125 Z M 54.421875 -36.328125 C 56.171875 -36.328125 57.320312 -36.019531 57.875 -35.40625 C 58.4375 -34.789062 58.71875 -34.019531 58.71875 -33.09375 C 58.71875 -32.09375 58.410156 -31.035156 57.796875 -29.921875 C 57.179688 -28.816406 56.210938 -27.867188 54.890625 -27.078125 C 53.578125 -26.285156 51.894531 -25.890625 49.84375 -25.890625 C 48.445312 -25.890625 47.132812 -25.929688 45.90625 -26.015625 C 44.675781 -26.109375 43.472656 -26.210938 42.296875 -26.328125 C 41.890625 -25.210938 41.46875 -24.082031 41.03125 -22.9375 C 40.59375 -21.800781 40.140625 -20.679688 39.671875 -19.578125 C 36.335938 -11.617188 32.375 -5.75 27.78125 -1.96875 C 23.1875 1.800781 18.140625 3.6875 12.640625 3.6875 C 8.597656 3.6875 5.316406 2.96875 2.796875 1.53125 C 0.285156 0.101562 -1.535156 -1.75 -2.671875 -4.03125 C -3.816406 -6.3125 -4.390625 -8.65625 -4.390625 -11.0625 C -4.390625 -13.457031 -3.90625 -15.75 -2.9375 -17.9375 C -1.96875 -20.132812 -0.609375 -21.921875 1.140625 -23.296875 C 2.898438 -24.671875 4.945312 -25.359375 7.28125 -25.359375 C 8.15625 -25.359375 8.59375 -25.007812 8.59375 -24.3125 C 8.59375 -22.382812 9.351562 -20.816406 10.875 -19.609375 C 12.40625 -18.410156 14.425781 -17.8125 16.9375 -17.8125 C 19.21875 -17.8125 21.734375 -18.613281 24.484375 -20.21875 C 27.234375 -21.832031 29.691406 -24.453125 31.859375 -28.078125 C 31.453125 -28.140625 31.039062 -28.1875 30.625 -28.21875 C 30.21875 -28.25 29.8125 -28.265625 29.40625 -28.265625 C 28.351562 -28.265625 27.59375 -28.570312 27.125 -29.1875 C 26.65625 -29.800781 26.421875 -30.578125 26.421875 -31.515625 C 26.421875 -32.796875 26.828125 -33.859375 27.640625 -34.703125 C 28.460938 -35.554688 29.78125 -35.984375 31.59375 -35.984375 L 35.28125 -35.984375 C 36.039062 -38.035156 36.785156 -40.082031 37.515625 -42.125 C 38.242188 -44.175781 38.992188 -46.109375 39.765625 -47.921875 C 40.347656 -49.441406 41.117188 -50.523438 42.078125 -51.171875 C 43.046875 -51.816406 44.175781 -52.140625 45.46875 -52.140625 C 47.394531 -52.140625 48.664062 -51.710938 49.28125 -50.859375 C 49.894531 -50.015625 49.96875 -48.859375 49.5 -47.390625 C 48.914062 -45.398438 48.316406 -43.484375 47.703125 -41.640625 C 47.085938 -39.796875 46.457031 -37.96875 45.8125 -36.15625 C 47.6875 -36.21875 49.351562 -36.257812 50.8125 -36.28125 C 52.28125 -36.3125 53.484375 -36.328125 54.421875 -36.328125 Z M 54.421875 -36.328125"/></g></g></g><g clip-path="url(#f5426dabf4)"><path stroke-miterlimit="4" stroke-opacity="1" stroke-width="8" stroke="#fff5f0" d="M 3.997995 93.535809 L 3.997995 131.673701 C 3.997995 142.718702 12.954107 151.674813 23.999108 151.674813 L 136.491005 151.674813 C 147.536005 151.674813 156.492117 142.718702 156.492117 131.673701 L 156.492117 24.001916 C 156.492117 12.956915 147.536005 4.000803 136.491005 4.000803 L 23.999108 4.000803 C 12.954107 4.000803 3.997995 12.956915 3.997995 24.001916 L 3.997995 106.936033" stroke-linejoin="miter" fill="none" transform="matrix(0.748005, 0, 0, 0.748005, 15.536822, 18.300347)" stroke-linecap="butt"/></g></svg>